<svg xmlns="http://www.w3.org/2000/svg" width="24" height="24" viewBox="0 0 24 24">
    <path d="M18.195 5.195c.26-.26.682-.26.942 0 .26.26.26.682 0 .943L6.471 18.804c-.167.177-.417.25-.652.19-.236-.061-.42-.245-.48-.481s.012-.485.19-.652L7.34 16.05c-1.27-.92-2.366-2.059-3.239-3.362-.136-.216-.136-.492 0-.709.128-.203 3.184-4.979 7.898-4.979 1.22.013 2.417.322 3.49.901zM17.71 9.45c.833.746 1.568 1.596 2.188 2.527.136.217.136.493 0 .71-.128.203-3.184 4.978-7.898 4.978-.733-.005-1.46-.122-2.157-.349zM12 9.666c-1.473 0-2.667 1.194-2.667 2.667.003.473.136.937.383 1.34l3.625-3.624c-.403-.248-.867-.38-1.341-.383z"/>
</svg>
